<svg width="22" height="22" viewBox="0 0 22 22" fill="none" xmlns="http://www.w3.org/2000/svg">
<path fill-rule="evenodd" clip-rule="evenodd" d="M10.3029 0.0206232L9.77212 0.0756232C7.19674 0.332748 4.60212 1.661 2.84762 3.62175C0.907494 5.79012 -0.0783814 8.481 0.0123686 11.3479C0.170494 16.2992 3.57362 20.4916 8.40124 21.6851C9.82261 22.0284 11.298 22.086 12.7418 21.8547C14.1856 21.6234 15.5691 21.1077 16.8121 20.3376C19.2566 18.8146 21.0062 16.3936 21.6851 13.5946C21.9216 12.6307 21.9766 12.1399 21.9766 11C21.9766 9.86012 21.9216 9.36925 21.6851 8.40537C20.5961 3.95725 16.9331 0.684748 12.375 0.0879982C11.9845 0.0371232 10.5641 -0.00825184 10.3029 0.0206232ZM12.1729 2.14912C13.1225 2.27087 14.0455 2.54821 14.905 2.97C15.8647 3.4375 16.5275 3.91325 17.3071 4.69287C18.0224 5.38245 18.6062 6.19641 19.03 7.095C19.6419 8.35312 19.9182 9.56725 19.9182 11C19.9371 12.3679 19.6258 13.7201 19.0107 14.9421C18.7742 15.4247 18.2971 16.1989 18.0744 16.4615L17.9987 16.5509L11.7246 10.2754L5.44912 4.00125L5.53849 3.92562C5.80112 3.70287 6.57524 3.22575 7.05787 2.98925C8.6408 2.20494 10.4222 1.91235 12.1729 2.14912ZM10.285 11.7342L16.555 18.0056L16.4629 18.0785C15.9833 18.4326 15.4746 18.7454 14.9421 19.0135C14.0806 19.4351 13.1589 19.7208 12.21 19.8605C11.627 19.9499 10.373 19.9499 9.78999 19.8605C7.11149 19.4535 4.85099 17.9919 3.42787 15.7451C3.07782 15.1647 2.78583 14.5513 2.55612 13.9136C2.01737 12.3262 1.92744 10.6209 2.29624 8.98562C2.57922 7.80318 3.09121 6.68765 3.80324 5.70212C3.89949 5.5715 3.98612 5.46425 3.99712 5.46425C4.00674 5.46425 6.83649 8.28575 10.285 11.7342Z" fill="#FF1414"/>
</svg>
